<svg xmlns="http://www.w3.org/2000/svg" xmlns:xlink="http://www.w3.org/1999/xlink" width="22" height="22" viewBox="0 0 22 22"><defs><style>.a{fill:#fff;}.b{clip-path:url(#a);}.c{fill:#fbbb00;}.d{fill:#518ef8;}.e{fill:#28b446;}.f{fill:#f14336;}</style><clipPath id="a"><rect class="a" width="22" height="22" rx="8" transform="translate(184 693)"/></clipPath></defs><g class="b" transform="translate(-184 -693)"><g transform="translate(189.387 698.387)"><path class="c" d="M2.488,9.694,2.1,11.152l-1.428.03A5.623,5.623,0,0,1,.628,5.941h0L1.9,6.174l.557,1.264a3.35,3.35,0,0,0,.031,2.255Z" transform="translate(0 -2.909)"/><path class="d" d="M16.634,8.945a5.611,5.611,0,0,1-2,5.426h0l-1.6-.082L12.8,12.874a3.345,3.345,0,0,0,1.439-1.708h-3V8.945h5.392Z" transform="translate(-5.505 -4.381)"/><path class="e" d="M9.769,16.5h0a5.615,5.615,0,0,1-8.458-1.717L3.13,13.295A3.338,3.338,0,0,0,7.941,15Z" transform="translate(-0.642 -6.511)"/><path class="f" d="M9.8,1.292,7.98,2.781A3.338,3.338,0,0,0,3.059,4.529L1.23,3.032h0A5.614,5.614,0,0,1,9.8,1.292Z" transform="translate(-0.602)"/></g></g></svg>