<svg xmlns="http://www.w3.org/2000/svg" xmlns:xlink="http://www.w3.org/1999/xlink" width="20" height="20" viewBox="0 0 20 20"><defs><style>.a{fill:#fff;stroke:#707070;}.b{clip-path:url(#a);}.c{fill:#0057d8;}</style><clipPath id="a"><rect class="a" width="20" height="20" transform="translate(193.031 316.031)"/></clipPath></defs><g class="b" transform="translate(-193.031 -316.031)"><g transform="translate(193.757 317.293)"><path class="c" d="M20.172,9.3c0-.418-.514-.909-1.012-1.385a4.86,4.86,0,0,1-1.231-1.535A5.056,5.056,0,0,1,17.7,4.365c.013-.671.027-1.364-.241-1.634s-.964-.26-1.635-.249a5.054,5.054,0,0,1-2.014-.234A4.873,4.873,0,0,1,12.28,1.014C11.806.516,11.314,0,10.9,0S9.989.516,9.514,1.014A4.873,4.873,0,0,1,7.983,2.247a5.054,5.054,0,0,1-2.014.234C5.3,2.471,4.6,2.46,4.333,2.73s-.255.963-.241,1.634a5.056,5.056,0,0,1-.227,2.019A4.86,4.86,0,0,1,2.634,7.919c-.5.476-1.012.967-1.012,1.385s.514.909,1.012,1.385a4.86,4.86,0,0,1,1.231,1.535,5.056,5.056,0,0,1,.227,2.019c-.013.671-.027,1.364.241,1.634s.964.26,1.635.249c.139,0,.279,0,.42,0a4.14,4.14,0,0,1,1.595.239,4.872,4.872,0,0,1,1.531,1.233c.475.5.966,1.014,1.383,1.014s.909-.516,1.383-1.014a4.873,4.873,0,0,1,1.531-1.233,5.06,5.06,0,0,1,2.014-.234c.671.011,1.366.022,1.635-.249s.255-.963.241-1.634a5.056,5.056,0,0,1,.227-2.019,4.86,4.86,0,0,1,1.231-1.535c.5-.476,1.012-.967,1.012-1.385ZM10.9,14.336a5.089,5.089,0,1,1,5.075-5.089A5.087,5.087,0,0,1,10.9,14.336Z" transform="translate(-1.622 0)"/><path class="c" d="M12.2,6.906a3.66,3.66,0,1,0-3.66,3.674A3.671,3.671,0,0,0,12.2,6.906Zm-5.489.57a.707.707,0,0,1,1-1l.376.376,1.28-1.28a.707.707,0,1,1,1,1L8.586,8.353a.707.707,0,0,1-1,0Z" transform="translate(0.737 2.342)"/></g></g></svg>