<svg xmlns="http://www.w3.org/2000/svg" xmlns:xlink="http://www.w3.org/1999/xlink" width="56" height="60" viewBox="0 0 56 60"><defs><style>.a{fill:#ffd5ba;}.b{isolation:isolate;clip-path:url(#a);}.c{opacity:0.59;fill:url(#b);}.d{fill:url(#c);}</style><clipPath id="a"><path class="a" d="M0,0H56a0,0,0,0,1,0,0V45A15,15,0,0,1,41,60H0a0,0,0,0,1,0,0V0A0,0,0,0,1,0,0Z" transform="translate(104.301 76.5)"/></clipPath><linearGradient id="b" x1="0.56" y1="0.847" x2="0.489" y2="-0.184" gradientUnits="objectBoundingBox"><stop offset="0" stop-color="#ecf7ff"/><stop offset="1" stop-color="#bee5ff"/></linearGradient><linearGradient id="c" x1="0.669" y1="0.569" x2="0.475" y2="0.002" gradientUnits="objectBoundingBox"><stop offset="0" stop-color="#ecf7ff"/><stop offset="1" stop-color="#c2e2f8"/></linearGradient></defs><g class="b" transform="translate(-104.301 -76.5)"><g transform="matrix(0.995, -0.105, 0.105, 0.995, 107.477, 91.942)"><path class="c" d="M11.4,59.5l28.063.929c5.6.185,9.984-5.249,9.8-12.139l-.929-34.545C48.152,6.854,43.464,1.119,37.867.934L9.8,0C4.207-.181-.18,5.254.006,12.143L.935,46.688C1.12,53.577,5.808,59.313,11.4,59.5Z" transform="translate(25.036 0) rotate(8)"/><path class="d" d="M10.329,65.442l46.507.207A9.878,9.878,0,0,0,66.867,55.8L66.66,10.145A10.1,10.1,0,0,0,56.538.207L10.032,0A9.878,9.878,0,0,0,0,9.848L.207,55.5A10.1,10.1,0,0,0,10.329,65.442Z" transform="translate(0 26.854) rotate(-13)"/></g></g></svg>