<svg xmlns="http://www.w3.org/2000/svg" xmlns:xlink="http://www.w3.org/1999/xlink" width="300" height="130" viewBox="0 0 300 130"><defs><style>.a{fill:#f2f6f8;}.b{clip-path:url(#a);}.c{fill:url(#b);}.d{fill:url(#c);}</style><clipPath id="a"><rect class="a" width="300" height="130" rx="15" transform="translate(30 383)"/></clipPath><linearGradient id="b" x1="0.353" y1="0.966" x2="0.446" y2="0.416" gradientUnits="objectBoundingBox"><stop offset="0" stop-color="#3184ff"/><stop offset="1" stop-color="#2b66c1"/></linearGradient><linearGradient id="c" x1="0.941" y1="0.28" x2="0.521" y2="0.916" xlink:href="#b"/></defs><g class="b" transform="translate(-30 -383)"><g transform="translate(-2328 26.27)"><path class="c" d="M2572.871,356s-10.229,7.8-10.229,26.039c4.548-.457,16.9-6.4,16.9-6.4l10.428,6.39,13.52-3.311,9.46,7.008,12.435-1.876,41.326,22.2V336.23Z" transform="translate(0 -6)"/><path class="d" d="M2570.2,350.907s31.577,8.45,45.809,29.8,9.34,23.629,19.124,37.359,29.8,10.229,29.8,10.229V352.467Z" transform="translate(0 -6)"/></g></g></svg>