<svg xmlns="http://www.w3.org/2000/svg" xmlns:xlink="http://www.w3.org/1999/xlink" width="24" height="24" viewBox="0 0 24 24"><defs><style>.a{opacity:0.4;clip-path:url(#a);}</style><clipPath id="a"><rect width="24" height="24" transform="translate(-6152 5754)"/></clipPath></defs><g class="a" transform="translate(6152 -5754)"><path d="M20.71,17.89v.94a1.88,1.88,0,0,1-1.88,1.88H5.67a1.88,1.88,0,0,1-1.88-1.88V5.67a1.88,1.88,0,0,1,1.88-1.88H18.83a1.88,1.88,0,0,1,1.88,1.88v.94H12.25a1.88,1.88,0,0,0-1.88,1.88v7.52a1.88,1.88,0,0,0,1.88,1.88Zm-8.46-1.88h9.4V8.49h-9.4Zm3.76-2.35a1.41,1.41,0,1,1,1.41-1.41A1.408,1.408,0,0,1,16.01,13.66Z" transform="translate(-6152.72 5753.75)"/></g></svg>