<svg xmlns="http://www.w3.org/2000/svg" xmlns:xlink="http://www.w3.org/1999/xlink" width="24" height="24" viewBox="0 0 24 24"><defs><style>.a{stroke:#707070;}.b{clip-path:url(#a);}</style><clipPath id="a"><rect class="a" width="24" height="24" transform="translate(303 49)"/></clipPath></defs><g class="b" transform="translate(-303 -49)"><g transform="translate(307.955 52.889)"><g transform="translate(0 1.171)"><path d="M12.505,10.916a.781.781,0,0,0-.782.782v2.455a.782.782,0,0,1-.782.782h-8.6a.782.782,0,0,1-.782-.782V3.992a.782.782,0,0,1,.782-.782H6.886a.782.782,0,0,0,0-1.563H2.345A2.348,2.348,0,0,0,0,3.992V14.152A2.348,2.348,0,0,0,2.345,16.5h8.6a2.347,2.347,0,0,0,2.345-2.345V11.7A.781.781,0,0,0,12.505,10.916Z" transform="translate(0 -1.647)"/></g><g transform="translate(4.502 0.201)"><path d="M17.429,1.071A3.008,3.008,0,0,0,13.2,1.064L7.913,6.355a4.079,4.079,0,0,0-1.2,2.9V11a.781.781,0,0,0,.782.782H9.248a4.079,4.079,0,0,0,2.9-1.2L17.429,5.3A3,3,0,0,0,17.429,1.071ZM11.041,9.48a2.526,2.526,0,0,1-1.793.741H8.279V9.252a2.525,2.525,0,0,1,.74-1.792l3.488-3.488,2.021,2.021ZM16.323,4.2l-.69.69L13.612,2.867l.69-.69A1.429,1.429,0,0,1,16.323,4.2Z" transform="translate(-6.715 -0.201)"/></g></g></g></svg>