<svg xmlns="http://www.w3.org/2000/svg" xmlns:xlink="http://www.w3.org/1999/xlink" width="145" height="120" viewBox="0 0 145 120"><defs><style>.a{fill:#ffd5ba;}.b{isolation:isolate;clip-path:url(#a);}.c{opacity:0.59;fill:url(#b);}.d{fill:url(#c);}</style><clipPath id="a"><rect class="a" width="145" height="120" rx="15"/></clipPath><linearGradient id="b" x1="0.56" y1="0.153" x2="0.489" y2="1.184" gradientUnits="objectBoundingBox"><stop offset="0" stop-color="#ecf7ff"/><stop offset="1" stop-color="#bee5ff"/></linearGradient><linearGradient id="c" x1="0.669" y1="0.431" x2="0.475" y2="0.998" gradientUnits="objectBoundingBox"><stop offset="0" stop-color="#ecf7ff"/><stop offset="1" stop-color="#c2e2f8"/></linearGradient></defs><g class="b"><g transform="translate(102.876 -22.427)"><path class="c" d="M8.294.679,28.7,0c4.07-.135,7.261,3.818,7.126,8.828l-.676,25.123c-.135,5.01-3.544,9.182-7.614,9.316l-20.41.676C3.06,44.082-.131,40.129,0,35.119L.68,10C.815,4.985,4.224.814,8.294.679Z" transform="translate(12.091 22.529) rotate(-8)"/><path class="d" d="M7.512.151,41.335,0a7.184,7.184,0,0,1,7.3,7.162L48.48,40.367a7.342,7.342,0,0,1-7.361,7.227L7.3,47.745A7.184,7.184,0,0,1,0,40.583L.151,7.378A7.342,7.342,0,0,1,7.512.151Z" transform="translate(10.74 0) rotate(13)"/></g></g></svg>